<mxfile host="app.diagrams.net" modified="2022-11-19T14:07:56.586Z" agent="5.0 (Windows NT 10.0; Win64; x64) AppleWebKit/537.36 (KHTML, like Gecko) Chrome/107.0.0.0 Safari/537.36 Edg/107.0.1418.42" etag="mWyy6XlNMziFhCGpnGZl" version="20.5.3" type="github">
  <diagram name="Page-1" id="9361dd3d-8414-5efd-6122-117bd74ce7a7">
    <mxGraphModel dx="965" dy="628" grid="1" gridSize="10" guides="1" tooltips="1" connect="1" arrows="1" fold="1" page="0" pageScale="1.5" pageWidth="826" pageHeight="1169" background="none" math="0" shadow="0">
      <root>
        <mxCell id="0" />
        <mxCell id="1" parent="0" />
        <mxCell id="2" value="" style="fillColor=#CC4125;strokeColor=#660000" parent="1" vertex="1">
          <mxGeometry x="200" y="150" width="10" height="130" as="geometry" />
        </mxCell>
        <mxCell id="4" value="patient" style="shadow=1;fillColor=#A2C4C9;strokeColor=none" parent="1" vertex="1">
          <mxGeometry x="152.5" y="60" width="105" height="50" as="geometry" />
        </mxCell>
        <mxCell id="6" value="" style="fillColor=#CC4125;strokeColor=#660000" parent="1" vertex="1">
          <mxGeometry x="342.5" y="180" width="10" height="80" as="geometry" />
        </mxCell>
        <mxCell id="7" value="bookSearchUI" style="shadow=1;fillColor=#A2C4C9;strokeColor=none" parent="1" vertex="1">
          <mxGeometry x="295" y="60" width="105" height="50" as="geometry" />
        </mxCell>
        <mxCell id="8" value="" style="edgeStyle=none;endArrow=none;dashed=1" parent="1" source="7" target="6" edge="1">
          <mxGeometry x="272.3350694444445" y="165" width="100" height="100" as="geometry">
            <mxPoint x="347.2588734567901" y="110" as="sourcePoint" />
            <mxPoint x="347.5761959876544" y="165" as="targetPoint" />
          </mxGeometry>
        </mxCell>
        <mxCell id="9" value="选择科室" style="edgeStyle=none;verticalLabelPosition=top;verticalAlign=bottom" parent="1" edge="1">
          <mxGeometry x="220" y="92" width="100" height="100" as="geometry">
            <mxPoint x="210" y="179.5" as="sourcePoint" />
            <mxPoint x="340" y="179.5" as="targetPoint" />
          </mxGeometry>
        </mxCell>
        <mxCell id="11" value="" style="edgeStyle=none;verticalLabelPosition=top;verticalAlign=bottom;endArrow=none;startArrow=classic;dashed=1" parent="1" edge="1">
          <mxGeometry x="220" y="172.25887345679013" width="100" height="100" as="geometry">
            <mxPoint x="210" y="259.7588734567901" as="sourcePoint" />
            <mxPoint x="340" y="259.7588734567901" as="targetPoint" />
          </mxGeometry>
        </mxCell>
        <mxCell id="jXku8HftPBpixDpqyHe0-103" value="显示医生" style="edgeLabel;html=1;align=center;verticalAlign=middle;resizable=0;points=[];" vertex="1" connectable="0" parent="11">
          <mxGeometry relative="1" as="geometry">
            <mxPoint x="-6" y="20" as="offset" />
          </mxGeometry>
        </mxCell>
        <mxCell id="13" value="" style="edgeStyle=none;verticalLabelPosition=top;verticalAlign=bottom;entryX=0;entryY=0.25;entryDx=0;entryDy=0;" parent="1" edge="1" target="21">
          <mxGeometry width="100" height="100" as="geometry">
            <mxPoint x="352.5" y="201.20563271604937" as="sourcePoint" />
            <mxPoint x="680" y="200" as="targetPoint" />
            <mxPoint x="15" y="-11" as="offset" />
          </mxGeometry>
        </mxCell>
        <mxCell id="jXku8HftPBpixDpqyHe0-101" value="科室名称" style="edgeLabel;html=1;align=center;verticalAlign=middle;resizable=0;points=[];" vertex="1" connectable="0" parent="13">
          <mxGeometry relative="1" as="geometry">
            <mxPoint x="5" y="-21" as="offset" />
          </mxGeometry>
        </mxCell>
        <mxCell id="21" value="" style="fillColor=#CC4125;strokeColor=#660000" parent="1" vertex="1">
          <mxGeometry x="497.5" y="180.00429012345683" width="10" height="80" as="geometry" />
        </mxCell>
        <mxCell id="22" value="dataBase" style="shadow=1;fillColor=#A2C4C9;strokeColor=none" parent="1" vertex="1">
          <mxGeometry x="450" y="60" width="105" height="50" as="geometry" />
        </mxCell>
        <mxCell id="23" value="" style="edgeStyle=none;endArrow=none;dashed=1" parent="1" source="22" edge="1">
          <mxGeometry x="441.9878472222224" y="174.99999999999997" width="100" height="100" as="geometry">
            <mxPoint x="502.1527777777778" y="110" as="sourcePoint" />
            <mxPoint x="503" y="630" as="targetPoint" />
          </mxGeometry>
        </mxCell>
        <mxCell id="24" value="bookInfo" style="shadow=1;fillColor=#A2C4C9;strokeColor=none" parent="1" vertex="1">
          <mxGeometry x="600" y="60" width="105" height="50" as="geometry" />
        </mxCell>
        <mxCell id="25" value="" style="edgeStyle=none;endArrow=none;dashed=1;startArrow=none;" parent="1" source="jXku8HftPBpixDpqyHe0-136" edge="1">
          <mxGeometry x="577.3350694444446" y="165" width="100" height="100" as="geometry">
            <mxPoint x="652.2588734567901" y="110" as="sourcePoint" />
            <mxPoint x="653" y="740" as="targetPoint" />
          </mxGeometry>
        </mxCell>
        <mxCell id="33" value="" style="edgeStyle=elbowEdgeStyle;elbow=horizontal;endArrow=none;dashed=1;startArrow=none;" parent="1" source="jXku8HftPBpixDpqyHe0-118" edge="1">
          <mxGeometry x="230.00000000000003" y="310" width="100" height="100" as="geometry">
            <mxPoint x="230.00000000000003" y="410" as="sourcePoint" />
            <mxPoint x="205" y="610.5714111328125" as="targetPoint" />
            <Array as="points">
              <mxPoint x="205" y="740" />
            </Array>
          </mxGeometry>
        </mxCell>
        <mxCell id="52" value="" style="edgeStyle=none;endArrow=none;dashed=1;startArrow=none;" parent="1" source="jXku8HftPBpixDpqyHe0-139" edge="1">
          <mxGeometry x="376.5711805555559" y="339.6971450617284" width="100" height="100" as="geometry">
            <mxPoint x="451.7361111111112" y="284.6971450617284" as="sourcePoint" />
            <mxPoint x="348" y="730" as="targetPoint" />
          </mxGeometry>
        </mxCell>
        <mxCell id="jXku8HftPBpixDpqyHe0-89" value="" style="fillColor=#CC4125;strokeColor=#660000" vertex="1" parent="1">
          <mxGeometry x="647.4999999999999" y="200.00429012345683" width="10" height="40" as="geometry" />
        </mxCell>
        <mxCell id="jXku8HftPBpixDpqyHe0-92" value="" style="endArrow=classic;html=1;rounded=0;entryX=1;entryY=0.75;entryDx=0;entryDy=0;exitX=0;exitY=0.75;exitDx=0;exitDy=0;dashed=1;" edge="1" parent="1" source="21" target="6">
          <mxGeometry width="50" height="50" relative="1" as="geometry">
            <mxPoint x="470" y="280" as="sourcePoint" />
            <mxPoint x="520" y="230" as="targetPoint" />
          </mxGeometry>
        </mxCell>
        <mxCell id="jXku8HftPBpixDpqyHe0-93" value="医生信息" style="edgeLabel;html=1;align=center;verticalAlign=middle;resizable=0;points=[];" vertex="1" connectable="0" parent="jXku8HftPBpixDpqyHe0-92">
          <mxGeometry x="-0.0622" y="3" relative="1" as="geometry">
            <mxPoint x="1" y="7" as="offset" />
          </mxGeometry>
        </mxCell>
        <mxCell id="jXku8HftPBpixDpqyHe0-99" value="" style="endArrow=classic;html=1;rounded=0;entryX=0;entryY=0.5;entryDx=0;entryDy=0;exitX=1;exitY=0.5;exitDx=0;exitDy=0;" edge="1" parent="1">
          <mxGeometry width="50" height="50" relative="1" as="geometry">
            <mxPoint x="507.5" y="219.58429012345684" as="sourcePoint" />
            <mxPoint x="647.5" y="219.58429012345684" as="targetPoint" />
          </mxGeometry>
        </mxCell>
        <mxCell id="jXku8HftPBpixDpqyHe0-100" value="记录科室" style="edgeLabel;html=1;align=center;verticalAlign=middle;resizable=0;points=[];" vertex="1" connectable="0" parent="jXku8HftPBpixDpqyHe0-99">
          <mxGeometry x="0.1112" y="1" relative="1" as="geometry">
            <mxPoint x="-5" y="-19" as="offset" />
          </mxGeometry>
        </mxCell>
        <mxCell id="jXku8HftPBpixDpqyHe0-104" value="" style="fillColor=#CC4125;strokeColor=#660000" vertex="1" parent="1">
          <mxGeometry x="200" y="320" width="10" height="130" as="geometry" />
        </mxCell>
        <mxCell id="jXku8HftPBpixDpqyHe0-105" value="" style="fillColor=#CC4125;strokeColor=#660000" vertex="1" parent="1">
          <mxGeometry x="342.5" y="350" width="10" height="80" as="geometry" />
        </mxCell>
        <mxCell id="jXku8HftPBpixDpqyHe0-106" value="选择医生" style="edgeStyle=none;verticalLabelPosition=top;verticalAlign=bottom" edge="1" parent="1">
          <mxGeometry x="220" y="262" width="100" height="100" as="geometry">
            <mxPoint x="210" y="349.5" as="sourcePoint" />
            <mxPoint x="340" y="349.5" as="targetPoint" />
          </mxGeometry>
        </mxCell>
        <mxCell id="jXku8HftPBpixDpqyHe0-107" value="" style="edgeStyle=none;verticalLabelPosition=top;verticalAlign=bottom;endArrow=none;startArrow=classic;dashed=1" edge="1" parent="1">
          <mxGeometry x="220" y="342.2588734567901" width="100" height="100" as="geometry">
            <mxPoint x="210" y="429.75887345679007" as="sourcePoint" />
            <mxPoint x="340" y="429.75887345679007" as="targetPoint" />
          </mxGeometry>
        </mxCell>
        <mxCell id="jXku8HftPBpixDpqyHe0-108" value="显示时间" style="edgeLabel;html=1;align=center;verticalAlign=middle;resizable=0;points=[];" vertex="1" connectable="0" parent="jXku8HftPBpixDpqyHe0-107">
          <mxGeometry relative="1" as="geometry">
            <mxPoint x="-4" y="20" as="offset" />
          </mxGeometry>
        </mxCell>
        <mxCell id="jXku8HftPBpixDpqyHe0-109" value="" style="edgeStyle=none;verticalLabelPosition=top;verticalAlign=bottom;entryX=0;entryY=0.25;entryDx=0;entryDy=0;" edge="1" parent="1" target="jXku8HftPBpixDpqyHe0-111">
          <mxGeometry y="170" width="100" height="100" as="geometry">
            <mxPoint x="352.5" y="371.2056327160494" as="sourcePoint" />
            <mxPoint x="680" y="370" as="targetPoint" />
            <mxPoint x="15" y="-11" as="offset" />
          </mxGeometry>
        </mxCell>
        <mxCell id="jXku8HftPBpixDpqyHe0-110" value="医生姓名" style="edgeLabel;html=1;align=center;verticalAlign=middle;resizable=0;points=[];" vertex="1" connectable="0" parent="jXku8HftPBpixDpqyHe0-109">
          <mxGeometry relative="1" as="geometry">
            <mxPoint x="5" y="-21" as="offset" />
          </mxGeometry>
        </mxCell>
        <mxCell id="jXku8HftPBpixDpqyHe0-111" value="" style="fillColor=#CC4125;strokeColor=#660000" vertex="1" parent="1">
          <mxGeometry x="497.5" y="350.0042901234568" width="10" height="80" as="geometry" />
        </mxCell>
        <mxCell id="jXku8HftPBpixDpqyHe0-112" value="" style="fillColor=#CC4125;strokeColor=#660000" vertex="1" parent="1">
          <mxGeometry x="647.4999999999999" y="370.0042901234568" width="10" height="40" as="geometry" />
        </mxCell>
        <mxCell id="jXku8HftPBpixDpqyHe0-113" value="" style="endArrow=classic;html=1;rounded=0;entryX=1;entryY=0.75;entryDx=0;entryDy=0;exitX=0;exitY=0.75;exitDx=0;exitDy=0;dashed=1;" edge="1" parent="1" source="jXku8HftPBpixDpqyHe0-111" target="jXku8HftPBpixDpqyHe0-105">
          <mxGeometry width="50" height="50" relative="1" as="geometry">
            <mxPoint x="470" y="450" as="sourcePoint" />
            <mxPoint x="520" y="400" as="targetPoint" />
          </mxGeometry>
        </mxCell>
        <mxCell id="jXku8HftPBpixDpqyHe0-114" value="门诊时间" style="edgeLabel;html=1;align=center;verticalAlign=middle;resizable=0;points=[];" vertex="1" connectable="0" parent="jXku8HftPBpixDpqyHe0-113">
          <mxGeometry x="-0.0622" y="3" relative="1" as="geometry">
            <mxPoint x="1" y="7" as="offset" />
          </mxGeometry>
        </mxCell>
        <mxCell id="jXku8HftPBpixDpqyHe0-115" value="" style="endArrow=classic;html=1;rounded=0;entryX=0;entryY=0.5;entryDx=0;entryDy=0;exitX=1;exitY=0.5;exitDx=0;exitDy=0;" edge="1" parent="1">
          <mxGeometry width="50" height="50" relative="1" as="geometry">
            <mxPoint x="507.5" y="389.58429012345687" as="sourcePoint" />
            <mxPoint x="647.5" y="389.58429012345687" as="targetPoint" />
          </mxGeometry>
        </mxCell>
        <mxCell id="jXku8HftPBpixDpqyHe0-116" value="记录医生" style="edgeLabel;html=1;align=center;verticalAlign=middle;resizable=0;points=[];" vertex="1" connectable="0" parent="jXku8HftPBpixDpqyHe0-115">
          <mxGeometry x="0.1112" y="1" relative="1" as="geometry">
            <mxPoint x="-5" y="-19" as="offset" />
          </mxGeometry>
        </mxCell>
        <mxCell id="jXku8HftPBpixDpqyHe0-119" value="选择医生" style="edgeStyle=none;verticalLabelPosition=top;verticalAlign=bottom" edge="1" parent="1">
          <mxGeometry x="222.5" y="462" width="100" height="100" as="geometry">
            <mxPoint x="212.5" y="549.5" as="sourcePoint" />
            <mxPoint x="342.5" y="549.5" as="targetPoint" />
          </mxGeometry>
        </mxCell>
        <mxCell id="jXku8HftPBpixDpqyHe0-124" value="" style="fillColor=#CC4125;strokeColor=#660000" vertex="1" parent="1">
          <mxGeometry x="497.5" y="510.0042901234568" width="10" height="80" as="geometry" />
        </mxCell>
        <mxCell id="jXku8HftPBpixDpqyHe0-128" value="" style="endArrow=classic;html=1;rounded=0;entryX=0;entryY=0.5;entryDx=0;entryDy=0;exitX=1;exitY=0.5;exitDx=0;exitDy=0;" edge="1" parent="1">
          <mxGeometry width="50" height="50" relative="1" as="geometry">
            <mxPoint x="507.5" y="549.5842901234569" as="sourcePoint" />
            <mxPoint x="647.5" y="549.5842901234569" as="targetPoint" />
          </mxGeometry>
        </mxCell>
        <mxCell id="jXku8HftPBpixDpqyHe0-129" value="记录时间" style="edgeLabel;html=1;align=center;verticalAlign=middle;resizable=0;points=[];" vertex="1" connectable="0" parent="jXku8HftPBpixDpqyHe0-128">
          <mxGeometry x="0.1112" y="1" relative="1" as="geometry">
            <mxPoint x="-5" y="-19" as="offset" />
          </mxGeometry>
        </mxCell>
        <mxCell id="jXku8HftPBpixDpqyHe0-118" value="" style="fillColor=#CC4125;strokeColor=#660000" vertex="1" parent="1">
          <mxGeometry x="200" y="510" width="10" height="80" as="geometry" />
        </mxCell>
        <mxCell id="jXku8HftPBpixDpqyHe0-130" value="" style="edgeStyle=elbowEdgeStyle;elbow=horizontal;endArrow=none;dashed=1" edge="1" parent="1" source="4" target="jXku8HftPBpixDpqyHe0-118">
          <mxGeometry x="230.00000000000003" y="310" width="100" height="100" as="geometry">
            <mxPoint x="205" y="110" as="sourcePoint" />
            <mxPoint x="205" y="610.5714111328125" as="targetPoint" />
          </mxGeometry>
        </mxCell>
        <mxCell id="jXku8HftPBpixDpqyHe0-131" value="" style="fillColor=#CC4125;strokeColor=#660000" vertex="1" parent="1">
          <mxGeometry x="342.5" y="510" width="10" height="80" as="geometry" />
        </mxCell>
        <mxCell id="jXku8HftPBpixDpqyHe0-132" value="" style="edgeStyle=none;endArrow=none;dashed=1" edge="1" parent="1" source="6" target="jXku8HftPBpixDpqyHe0-131">
          <mxGeometry x="376.5711805555559" y="339.6971450617284" width="100" height="100" as="geometry">
            <mxPoint x="347.551282051282" y="260" as="sourcePoint" />
            <mxPoint x="348" y="610" as="targetPoint" />
          </mxGeometry>
        </mxCell>
        <mxCell id="jXku8HftPBpixDpqyHe0-133" value="" style="fillColor=#CC4125;strokeColor=#660000" vertex="1" parent="1">
          <mxGeometry x="647.5" y="530" width="10" height="40" as="geometry" />
        </mxCell>
        <mxCell id="jXku8HftPBpixDpqyHe0-134" value="" style="edgeStyle=none;endArrow=none;dashed=1" edge="1" parent="1" source="24" target="jXku8HftPBpixDpqyHe0-133">
          <mxGeometry x="577.3350694444446" y="165" width="100" height="100" as="geometry">
            <mxPoint x="652.5238095238096" y="110" as="sourcePoint" />
            <mxPoint x="653" y="610" as="targetPoint" />
          </mxGeometry>
        </mxCell>
        <mxCell id="jXku8HftPBpixDpqyHe0-135" value="就诊时间" style="edgeStyle=none;verticalLabelPosition=top;verticalAlign=bottom;exitX=1;exitY=0.5;exitDx=0;exitDy=0;" edge="1" parent="1" source="jXku8HftPBpixDpqyHe0-131">
          <mxGeometry x="377.5" y="462" width="100" height="100" as="geometry">
            <mxPoint x="367.5" y="549.5" as="sourcePoint" />
            <mxPoint x="497.5" y="549.5" as="targetPoint" />
          </mxGeometry>
        </mxCell>
        <mxCell id="jXku8HftPBpixDpqyHe0-136" value="" style="fillColor=#CC4125;strokeColor=#660000" vertex="1" parent="1">
          <mxGeometry x="647.5" y="640.0042901234568" width="10" height="80" as="geometry" />
        </mxCell>
        <mxCell id="jXku8HftPBpixDpqyHe0-137" value="" style="edgeStyle=none;endArrow=none;dashed=1;startArrow=none;" edge="1" parent="1" source="jXku8HftPBpixDpqyHe0-133" target="jXku8HftPBpixDpqyHe0-136">
          <mxGeometry x="577.3350694444446" y="165" width="100" height="100" as="geometry">
            <mxPoint x="652.605265534748" y="590.0042901234569" as="sourcePoint" />
            <mxPoint x="653" y="740" as="targetPoint" />
          </mxGeometry>
        </mxCell>
        <mxCell id="jXku8HftPBpixDpqyHe0-138" value="" style="endArrow=classic;html=1;rounded=0;exitX=0;exitY=0.5;exitDx=0;exitDy=0;entryX=1;entryY=0.5;entryDx=0;entryDy=0;dashed=1;" edge="1" parent="1" source="jXku8HftPBpixDpqyHe0-136" target="jXku8HftPBpixDpqyHe0-139">
          <mxGeometry width="50" height="50" relative="1" as="geometry">
            <mxPoint x="410" y="560" as="sourcePoint" />
            <mxPoint x="460" y="510" as="targetPoint" />
          </mxGeometry>
        </mxCell>
        <mxCell id="jXku8HftPBpixDpqyHe0-142" value="挂号单" style="edgeLabel;html=1;align=center;verticalAlign=middle;resizable=0;points=[];" vertex="1" connectable="0" parent="jXku8HftPBpixDpqyHe0-138">
          <mxGeometry x="0.0804" relative="1" as="geometry">
            <mxPoint x="14" y="20" as="offset" />
          </mxGeometry>
        </mxCell>
        <mxCell id="jXku8HftPBpixDpqyHe0-139" value="" style="fillColor=#CC4125;strokeColor=#660000" vertex="1" parent="1">
          <mxGeometry x="342.5" y="640" width="10" height="80" as="geometry" />
        </mxCell>
        <mxCell id="jXku8HftPBpixDpqyHe0-140" value="" style="edgeStyle=none;endArrow=none;dashed=1;startArrow=none;" edge="1" parent="1" source="jXku8HftPBpixDpqyHe0-131" target="jXku8HftPBpixDpqyHe0-139">
          <mxGeometry x="376.5711805555559" y="339.6971450617284" width="100" height="100" as="geometry">
            <mxPoint x="347.6111111111111" y="590" as="sourcePoint" />
            <mxPoint x="348" y="730" as="targetPoint" />
          </mxGeometry>
        </mxCell>
        <mxCell id="jXku8HftPBpixDpqyHe0-141" value="" style="fillColor=#CC4125;strokeColor=#660000" vertex="1" parent="1">
          <mxGeometry x="200" y="640" width="10" height="80" as="geometry" />
        </mxCell>
        <mxCell id="jXku8HftPBpixDpqyHe0-143" value="" style="endArrow=classic;html=1;rounded=0;dashed=1;entryX=1;entryY=0.5;entryDx=0;entryDy=0;exitX=0;exitY=0.5;exitDx=0;exitDy=0;" edge="1" parent="1" source="jXku8HftPBpixDpqyHe0-139" target="jXku8HftPBpixDpqyHe0-141">
          <mxGeometry width="50" height="50" relative="1" as="geometry">
            <mxPoint x="410" y="560" as="sourcePoint" />
            <mxPoint x="460" y="510" as="targetPoint" />
          </mxGeometry>
        </mxCell>
        <mxCell id="jXku8HftPBpixDpqyHe0-144" value="显示挂号单" style="edgeLabel;html=1;align=center;verticalAlign=middle;resizable=0;points=[];" vertex="1" connectable="0" parent="jXku8HftPBpixDpqyHe0-143">
          <mxGeometry x="0.2884" relative="1" as="geometry">
            <mxPoint x="13" y="20" as="offset" />
          </mxGeometry>
        </mxCell>
      </root>
    </mxGraphModel>
  </diagram>
</mxfile>
